<svg xmlns="http://www.w3.org/2000/svg" xmlns:xlink="http://www.w3.org/1999/xlink" width="1000" zoomAndPan="magnify" viewBox="0 0 750 187.499995" height="250" preserveAspectRatio="xMidYMid meet" version="1.0"><defs><g/></defs><g fill="#ff6b00" fill-opacity="1"><g transform="translate(43.816912, 134.640948)"><g><path d="M 5.75 -0.140625 L 70.375 -0.140625 L 70.375 11.921875 L 5.75 11.921875 Z M 5.75 -0.140625 "/></g></g></g><g fill="#ff6b00" fill-opacity="1"><g transform="translate(115.625418, 134.640948)"><g/></g></g><g fill="#ffffff" fill-opacity="1"><g transform="translate(115.625418, 134.640948)"><g><path d="M 86.453125 -6.3125 L 86.453125 0 L 49.6875 0 L 49.6875 -6.3125 L 58.453125 -8.046875 C 58.546875 -11.585938 58.59375 -15.367188 58.59375 -19.390625 C 58.59375 -23.410156 58.59375 -27 58.59375 -30.15625 L 58.59375 -43.9375 C 58.59375 -49.394531 58.015625 -53.390625 56.859375 -55.921875 C 55.710938 -58.460938 53.46875 -59.734375 50.125 -59.734375 C 47.34375 -59.734375 44.632812 -58.992188 42 -57.515625 C 39.375 -56.035156 36.671875 -53.953125 33.890625 -51.265625 L 33.890625 -30.15625 C 33.890625 -27.09375 33.890625 -23.523438 33.890625 -19.453125 C 33.890625 -15.390625 33.9375 -11.585938 34.03125 -8.046875 L 42.21875 -6.3125 L 42.21875 0 L 5.453125 0 L 5.453125 -6.3125 L 14.21875 -8.046875 C 14.3125 -11.679688 14.359375 -15.507812 14.359375 -19.53125 C 14.359375 -23.550781 14.359375 -27.09375 14.359375 -30.15625 L 14.359375 -38.34375 C 14.359375 -40.351562 14.359375 -42.097656 14.359375 -43.578125 C 14.359375 -45.066406 14.332031 -46.457031 14.28125 -47.75 C 14.238281 -49.039062 14.191406 -50.285156 14.140625 -51.484375 C 14.097656 -52.679688 14.03125 -54 13.9375 -55.4375 L 4.3125 -56.71875 L 4.3125 -62.1875 L 30.296875 -71.515625 L 32.453125 -70.078125 L 33.46875 -58.734375 C 35.476562 -61.035156 37.367188 -62.972656 39.140625 -64.546875 C 40.910156 -66.128906 42.703125 -67.445312 44.515625 -68.5 C 46.335938 -69.550781 48.226562 -70.316406 50.1875 -70.796875 C 52.15625 -71.273438 54.382812 -71.515625 56.875 -71.515625 C 63.757812 -71.515625 69.019531 -69.476562 72.65625 -65.40625 C 76.300781 -61.34375 78.125 -54.957031 78.125 -46.25 L 78.125 -30.15625 C 78.125 -27 78.125 -23.382812 78.125 -19.3125 C 78.125 -15.25 78.171875 -11.492188 78.265625 -8.046875 Z M 86.453125 -6.3125 "/></g></g></g><g fill="#ffffff" fill-opacity="1"><g transform="translate(200.933886, 134.640948)"><g><path d="M 43.21875 -40.921875 C 46.664062 -40.921875 49.035156 -41.640625 50.328125 -43.078125 C 51.628906 -44.515625 52.28125 -46.765625 52.28125 -49.828125 C 52.28125 -54.421875 51.320312 -57.988281 49.40625 -60.53125 C 47.488281 -63.070312 45 -64.34375 41.9375 -64.34375 C 40.3125 -64.34375 38.632812 -63.957031 36.90625 -63.1875 C 35.1875 -62.425781 33.582031 -61.132812 32.09375 -59.3125 C 30.613281 -57.488281 29.320312 -55.066406 28.21875 -52.046875 C 27.113281 -49.035156 26.375 -45.328125 26 -40.921875 Z M 25.84375 -33.75 C 26.132812 -25.226562 28.21875 -18.976562 32.09375 -15 C 35.96875 -11.03125 40.828125 -9.046875 46.671875 -9.046875 C 50.878906 -9.046875 54.347656 -9.976562 57.078125 -11.84375 C 59.804688 -13.707031 62.273438 -16.363281 64.484375 -19.8125 L 69.359375 -17.09375 C 67.441406 -10.769531 63.847656 -5.976562 58.578125 -2.71875 C 53.316406 0.53125 47.050781 2.15625 39.78125 2.15625 C 34.613281 2.15625 29.875 1.34375 25.5625 -0.28125 C 21.25 -1.914062 17.582031 -4.285156 14.5625 -7.390625 C 11.550781 -10.503906 9.207031 -14.332031 7.53125 -18.875 C 5.863281 -23.425781 5.03125 -28.625 5.03125 -34.46875 C 5.03125 -39.925781 5.9375 -44.90625 7.75 -49.40625 C 9.570312 -53.90625 12.085938 -57.804688 15.296875 -61.109375 C 18.503906 -64.410156 22.304688 -66.96875 26.703125 -68.78125 C 31.109375 -70.601562 35.847656 -71.515625 40.921875 -71.515625 C 45.523438 -71.515625 49.664062 -70.769531 53.34375 -69.28125 C 57.03125 -67.800781 60.164062 -65.71875 62.75 -63.03125 C 65.34375 -60.351562 67.332031 -57.148438 68.71875 -53.421875 C 70.101562 -49.691406 70.796875 -45.625 70.796875 -41.21875 C 70.796875 -38.53125 70.507812 -36.039062 69.9375 -33.75 Z M 25.84375 -33.75 "/></g></g></g><g fill="#ffffff" fill-opacity="1"><g transform="translate(272.311509, 134.640948)"><g><path d="M 75.828125 -6.3125 L 75.828125 0 L 38.203125 0 L 38.203125 -6.3125 L 45.234375 -7.46875 L 33.3125 -26.140625 L 20.6875 -7.75 L 29.015625 -6.3125 L 29.015625 0 L 1.4375 0 L 1.4375 -6.3125 L 12.640625 -8.1875 L 29.875 -31.59375 L 9.90625 -61.46875 L 1.578125 -62.609375 L 1.578125 -68.9375 L 37.90625 -68.9375 L 37.90625 -62.609375 L 31.15625 -61.46875 L 42.21875 -44.375 L 54 -61.46875 L 47.828125 -62.609375 L 47.828125 -68.9375 L 71.09375 -68.9375 L 71.09375 -62.609375 L 61.609375 -60.890625 L 45.53125 -39.34375 L 66.78125 -8.046875 Z M 75.828125 -6.3125 "/></g></g></g><g fill="#ffffff" fill-opacity="1"><g transform="translate(344.550823, 134.640948)"><g><path d="M 51.265625 -8.765625 C 49.453125 -5.984375 46.820312 -3.585938 43.375 -1.578125 C 39.925781 0.429688 35.613281 1.4375 30.4375 1.4375 C 24.601562 1.4375 19.984375 0 16.578125 -2.875 C 13.179688 -5.75 11.484375 -10.203125 11.484375 -16.234375 C 11.484375 -19.203125 11.503906 -21.757812 11.546875 -23.90625 C 11.597656 -26.0625 11.625 -28.53125 11.625 -31.3125 L 11.625 -59.734375 L 2.015625 -59.734375 L 2.015625 -67.640625 L 13.359375 -69.078125 L 17.375 -89.03125 L 31.15625 -89.03125 L 31.15625 -68.9375 L 47.53125 -68.9375 L 47.53125 -59.734375 L 31.15625 -59.734375 L 31.15625 -20.25 C 31.15625 -16.707031 31.847656 -14.144531 33.234375 -12.5625 C 34.628906 -10.988281 36.425781 -10.203125 38.625 -10.203125 C 39.582031 -10.203125 40.800781 -10.414062 42.28125 -10.84375 C 43.769531 -11.269531 45.378906 -12.203125 47.109375 -13.640625 Z M 51.265625 -8.765625 "/></g></g></g><g fill="#ffffff" fill-opacity="1"><g transform="translate(391.370551, 134.640948)"><g/></g></g><g fill="#ff6b00" fill-opacity="1"><g transform="translate(391.370551, 134.640948)"><g><path d="M 80.421875 -27.859375 L 78.984375 0 L 4.59375 0 L 4.59375 -7.1875 L 16.234375 -8.46875 C 16.421875 -14.40625 16.515625 -20.363281 16.515625 -26.34375 C 16.515625 -32.332031 16.515625 -38.390625 16.515625 -44.515625 L 16.515625 -49.546875 C 16.515625 -55.578125 16.515625 -61.582031 16.515625 -67.5625 C 16.515625 -73.550781 16.421875 -79.5625 16.234375 -85.59375 L 4.59375 -86.890625 L 4.59375 -94.0625 L 50.125 -94.0625 L 50.125 -86.890625 L 37.765625 -85.59375 C 37.578125 -79.5625 37.484375 -73.578125 37.484375 -67.640625 C 37.484375 -61.703125 37.484375 -55.671875 37.484375 -49.546875 L 37.484375 -44.515625 C 37.484375 -38.390625 37.484375 -32.285156 37.484375 -26.203125 C 37.484375 -20.128906 37.578125 -14.03125 37.765625 -7.90625 L 65.0625 -7.90625 L 69.078125 -27.859375 Z M 80.421875 -27.859375 "/></g></g></g><g fill="#ff6b00" fill-opacity="1"><g transform="translate(470.359872, 134.640948)"><g><path d="M 45.53125 -37.046875 C 43.707031 -36.566406 42.003906 -36.0625 40.421875 -35.53125 C 38.847656 -35.007812 37.484375 -34.507812 36.328125 -34.03125 C 32.117188 -32.40625 29.195312 -30.347656 27.5625 -27.859375 C 25.9375 -25.367188 25.125 -22.59375 25.125 -19.53125 C 25.125 -17.613281 25.390625 -16.082031 25.921875 -14.9375 C 26.453125 -13.789062 27.097656 -12.832031 27.859375 -12.0625 C 29.867188 -10.050781 32.550781 -9.046875 35.90625 -9.046875 C 37.4375 -9.046875 38.921875 -9.304688 40.359375 -9.828125 C 41.796875 -10.359375 43.519531 -11.34375 45.53125 -12.78125 Z M 77.40625 -9.046875 C 75.488281 -5.117188 73.304688 -2.390625 70.859375 -0.859375 C 68.421875 0.671875 65.382812 1.4375 61.75 1.4375 C 57.820312 1.4375 54.566406 0.671875 51.984375 -0.859375 C 49.398438 -2.390625 47.582031 -4.398438 46.53125 -6.890625 C 43.269531 -3.921875 40.128906 -1.671875 37.109375 -0.140625 C 34.097656 1.390625 30.34375 2.15625 25.84375 2.15625 C 20.101562 2.15625 15.4375 0.695312 11.84375 -2.21875 C 8.257812 -5.144531 6.46875 -9.429688 6.46875 -15.078125 C 6.46875 -17.273438 6.820312 -19.453125 7.53125 -21.609375 C 8.25 -23.765625 9.585938 -25.867188 11.546875 -27.921875 C 13.515625 -29.984375 16.222656 -31.972656 19.671875 -33.890625 C 23.117188 -35.804688 27.570312 -37.675781 33.03125 -39.5 C 34.65625 -40.070312 36.566406 -40.664062 38.765625 -41.28125 C 40.972656 -41.90625 43.226562 -42.550781 45.53125 -43.21875 L 45.53125 -47.53125 C 45.53125 -53.5625 44.617188 -57.867188 42.796875 -60.453125 C 40.972656 -63.046875 37.765625 -64.34375 33.171875 -64.34375 C 32.410156 -64.34375 31.671875 -64.316406 30.953125 -64.265625 C 30.234375 -64.210938 29.488281 -64.140625 28.71875 -64.046875 L 27.578125 -55.71875 C 27.097656 -51.988281 25.945312 -49.210938 24.125 -47.390625 C 22.300781 -45.566406 20.144531 -44.65625 17.65625 -44.65625 C 15.457031 -44.65625 13.566406 -45.328125 11.984375 -46.671875 C 10.410156 -48.015625 9.382812 -49.785156 8.90625 -51.984375 C 9.570312 -57.628906 12.585938 -62.296875 17.953125 -65.984375 C 23.316406 -69.671875 30.59375 -71.515625 39.78125 -71.515625 C 44.28125 -71.515625 48.132812 -71.007812 51.34375 -70 C 54.550781 -69 57.160156 -67.375 59.171875 -65.125 C 61.179688 -62.875 62.664062 -59.90625 63.625 -56.21875 C 64.582031 -52.53125 65.0625 -48.007812 65.0625 -42.65625 L 65.0625 -13.0625 C 65.0625 -11.53125 65.347656 -10.285156 65.921875 -9.328125 C 66.492188 -8.378906 67.398438 -7.90625 68.640625 -7.90625 C 69.597656 -7.90625 70.363281 -8.191406 70.9375 -8.765625 C 71.507812 -9.335938 72.179688 -10.054688 72.953125 -10.921875 L 73.671875 -11.78125 Z M 77.40625 -9.046875 "/></g></g></g><g fill="#ff6b00" fill-opacity="1"><g transform="translate(542.74281, 134.640948)"><g><path d="M 86.453125 -6.3125 L 86.453125 0 L 49.6875 0 L 49.6875 -6.3125 L 58.453125 -8.046875 C 58.546875 -11.585938 58.59375 -15.367188 58.59375 -19.390625 C 58.59375 -23.410156 58.59375 -27 58.59375 -30.15625 L 58.59375 -43.9375 C 58.59375 -49.394531 58.015625 -53.390625 56.859375 -55.921875 C 55.710938 -58.460938 53.46875 -59.734375 50.125 -59.734375 C 47.34375 -59.734375 44.632812 -58.992188 42 -57.515625 C 39.375 -56.035156 36.671875 -53.953125 33.890625 -51.265625 L 33.890625 -30.15625 C 33.890625 -27.09375 33.890625 -23.523438 33.890625 -19.453125 C 33.890625 -15.390625 33.9375 -11.585938 34.03125 -8.046875 L 42.21875 -6.3125 L 42.21875 0 L 5.453125 0 L 5.453125 -6.3125 L 14.21875 -8.046875 C 14.3125 -11.679688 14.359375 -15.507812 14.359375 -19.53125 C 14.359375 -23.550781 14.359375 -27.09375 14.359375 -30.15625 L 14.359375 -38.34375 C 14.359375 -40.351562 14.359375 -42.097656 14.359375 -43.578125 C 14.359375 -45.066406 14.332031 -46.457031 14.28125 -47.75 C 14.238281 -49.039062 14.191406 -50.285156 14.140625 -51.484375 C 14.097656 -52.679688 14.03125 -54 13.9375 -55.4375 L 4.3125 -56.71875 L 4.3125 -62.1875 L 30.296875 -71.515625 L 32.453125 -70.078125 L 33.46875 -58.734375 C 35.476562 -61.035156 37.367188 -62.972656 39.140625 -64.546875 C 40.910156 -66.128906 42.703125 -67.445312 44.515625 -68.5 C 46.335938 -69.550781 48.226562 -70.316406 50.1875 -70.796875 C 52.15625 -71.273438 54.382812 -71.515625 56.875 -71.515625 C 63.757812 -71.515625 69.019531 -69.476562 72.65625 -65.40625 C 76.300781 -61.34375 78.125 -54.957031 78.125 -46.25 L 78.125 -30.15625 C 78.125 -27 78.125 -23.382812 78.125 -19.3125 C 78.125 -15.25 78.171875 -11.492188 78.265625 -8.046875 Z M 86.453125 -6.3125 "/></g></g></g><g fill="#ff6b00" fill-opacity="1"><g transform="translate(628.051283, 134.640948)"><g><path d="M 36.484375 -31.015625 C 40.117188 -31.015625 42.890625 -32.519531 44.796875 -35.53125 C 46.710938 -38.550781 47.671875 -42.742188 47.671875 -48.109375 C 47.671875 -53.472656 46.710938 -57.640625 44.796875 -60.609375 C 42.890625 -63.578125 40.117188 -65.0625 36.484375 -65.0625 C 32.835938 -65.0625 30.082031 -63.578125 28.21875 -60.609375 C 26.351562 -57.640625 25.421875 -53.472656 25.421875 -48.109375 C 25.421875 -42.742188 26.351562 -38.550781 28.21875 -35.53125 C 30.082031 -32.519531 32.835938 -31.015625 36.484375 -31.015625 Z M 31.15625 2.15625 C 27.90625 2.15625 25.082031 1.867188 22.6875 1.296875 C 21.351562 4.066406 20.6875 6.84375 20.6875 9.625 C 20.6875 14.125 22.070312 17.234375 24.84375 18.953125 C 27.625 20.679688 31.3125 21.546875 35.90625 21.546875 C 43.269531 21.546875 48.867188 20.421875 52.703125 18.171875 C 56.535156 15.921875 58.453125 13.117188 58.453125 9.765625 C 58.453125 7.847656 57.632812 6.097656 56 4.515625 C 54.375 2.941406 51.3125 2.15625 46.8125 2.15625 Z M 75.390625 -59.59375 L 61.75 -59.59375 C 63.851562 -56.144531 64.90625 -52.316406 64.90625 -48.109375 C 64.90625 -44.660156 64.234375 -41.5 62.890625 -38.625 C 61.554688 -35.757812 59.644531 -33.269531 57.15625 -31.15625 C 54.664062 -29.050781 51.671875 -27.425781 48.171875 -26.28125 C 44.679688 -25.132812 40.785156 -24.5625 36.484375 -24.5625 C 32.648438 -24.5625 29.007812 -25.085938 25.5625 -26.140625 C 24.988281 -25.085938 24.535156 -24.175781 24.203125 -23.40625 C 23.867188 -22.644531 23.703125 -21.738281 23.703125 -20.6875 C 23.703125 -17.039062 26.332031 -15.21875 31.59375 -15.21875 L 47.109375 -15.21875 C 57.066406 -15.21875 64.148438 -13.519531 68.359375 -10.125 C 72.566406 -6.726562 74.671875 -2.15625 74.671875 3.59375 C 74.671875 7.039062 73.832031 10.296875 72.15625 13.359375 C 70.488281 16.421875 67.976562 19.078125 64.625 21.328125 C 61.269531 23.578125 56.984375 25.367188 51.765625 26.703125 C 46.546875 28.046875 40.445312 28.71875 33.46875 28.71875 C 23.03125 28.71875 15.535156 27.519531 10.984375 25.125 C 6.441406 22.738281 4.171875 19.242188 4.171875 14.640625 C 4.171875 11.679688 5.125 9.003906 7.03125 6.609375 C 8.945312 4.210938 12.347656 1.816406 17.234375 -0.578125 C 14.453125 -1.910156 12.4375 -3.65625 11.1875 -5.8125 C 9.945312 -7.96875 9.328125 -10.289062 9.328125 -12.78125 C 9.328125 -16.03125 10.257812 -18.898438 12.125 -21.390625 C 14 -23.878906 16.5625 -26.226562 19.8125 -28.4375 C 16.175781 -30.539062 13.304688 -33.265625 11.203125 -36.609375 C 9.097656 -39.960938 8.046875 -43.796875 8.046875 -48.109375 C 8.046875 -51.554688 8.710938 -54.710938 10.046875 -57.578125 C 11.390625 -60.453125 13.304688 -62.921875 15.796875 -64.984375 C 18.285156 -67.046875 21.273438 -68.648438 24.765625 -69.796875 C 28.265625 -70.941406 32.171875 -71.515625 36.484375 -71.515625 C 44.328125 -71.515625 50.785156 -69.648438 55.859375 -65.921875 L 73.234375 -71.515625 L 75.390625 -70.078125 Z M 75.390625 -59.59375 "/></g></g></g><g fill="#ff6b00" fill-opacity="1"><g transform="translate(701.874546, 134.640948)"><g/></g></g></svg>