<svg xmlns="http://www.w3.org/2000/svg" xmlns:xlink="http://www.w3.org/1999/xlink" width="1000" zoomAndPan="magnify" viewBox="0 0 750 187.499995" height="250" preserveAspectRatio="xMidYMid meet" version="1.2"><defs/><g id="f20d2d52b1"><g style="fill:#ff6b00;fill-opacity:1;"><g transform="translate(31.241074, 134.640948)"><path style="stroke:none" d="M 5.75 -0.140625 L 70.375 -0.140625 L 70.375 11.921875 L 5.75 11.921875 Z M 5.75 -0.140625 "/></g></g><g style="fill:#ff6b00;fill-opacity:1;"><g transform="translate(103.04958, 134.640948)"><path style="stroke:none" d=""/></g></g><g style="fill:#ffffff;fill-opacity:1;"><g transform="translate(103.04958, 134.640948)"><path style="stroke:none" d="M 46.09375 -55.859375 C 51.269531 -54.046875 55.578125 -52.0625 59.015625 -49.90625 C 62.460938 -47.75 65.21875 -45.445312 67.28125 -43 C 69.34375 -40.5625 70.828125 -38.023438 71.734375 -35.390625 C 72.640625 -32.765625 73.09375 -30.0625 73.09375 -27.28125 C 73.09375 -23.070312 72.179688 -19.195312 70.359375 -15.65625 C 68.546875 -12.113281 65.988281 -9 62.6875 -6.3125 C 59.382812 -3.632812 55.410156 -1.550781 50.765625 -0.0625 C 46.117188 1.414062 40.925781 2.15625 35.1875 2.15625 C 29.726562 2.15625 24.316406 1.507812 18.953125 0.21875 C 13.597656 -1.070312 8.957031 -2.914062 5.03125 -5.3125 L 5.890625 -26.421875 L 17.8125 -26.421875 L 20.6875 -9.1875 C 22.882812 -8.132812 25.128906 -7.296875 27.421875 -6.671875 C 29.722656 -6.054688 32.265625 -5.75 35.046875 -5.75 C 41.078125 -5.75 45.765625 -7.132812 49.109375 -9.90625 C 52.460938 -12.6875 54.140625 -16.375 54.140625 -20.96875 C 54.140625 -24.601562 52.96875 -27.472656 50.625 -29.578125 C 48.28125 -31.691406 44.519531 -33.703125 39.34375 -35.609375 L 32.3125 -38.203125 C 23.789062 -41.265625 17.160156 -45.304688 12.421875 -50.328125 C 7.679688 -55.359375 5.3125 -61.460938 5.3125 -68.640625 C 5.3125 -72.660156 6.097656 -76.347656 7.671875 -79.703125 C 9.253906 -83.054688 11.550781 -85.953125 14.5625 -88.390625 C 17.582031 -90.828125 21.222656 -92.738281 25.484375 -94.125 C 29.742188 -95.519531 34.601562 -96.21875 40.0625 -96.21875 C 45.332031 -96.21875 50.285156 -95.570312 54.921875 -94.28125 C 59.566406 -92.988281 63.613281 -91.144531 67.0625 -88.75 L 66.0625 -69.078125 L 54.28125 -69.078125 L 51.40625 -86.015625 C 49.5 -86.785156 47.632812 -87.359375 45.8125 -87.734375 C 43.988281 -88.117188 42.117188 -88.3125 40.203125 -88.3125 C 35.421875 -88.3125 31.398438 -87.066406 28.140625 -84.578125 C 24.890625 -82.097656 23.265625 -78.554688 23.265625 -73.953125 C 23.265625 -69.929688 24.601562 -66.769531 27.28125 -64.46875 C 29.96875 -62.175781 33.75 -60.171875 38.625 -58.453125 Z M 46.09375 -55.859375 "/></g></g><g style="fill:#ffffff;fill-opacity:1;"><g transform="translate(172.560185, 134.640948)"><path style="stroke:none" d="M 33.890625 -13.359375 C 35.804688 -12.015625 37.769531 -10.9375 39.78125 -10.125 C 41.789062 -9.3125 43.800781 -8.90625 45.8125 -8.90625 C 50.21875 -8.90625 53.953125 -10.984375 57.015625 -15.140625 C 60.078125 -19.304688 61.609375 -25.796875 61.609375 -34.609375 C 61.609375 -43.421875 60.289062 -49.90625 57.65625 -54.0625 C 55.019531 -58.226562 51.40625 -60.3125 46.8125 -60.3125 C 44.613281 -60.3125 42.4375 -59.878906 40.28125 -59.015625 C 38.125 -58.160156 35.992188 -57.015625 33.890625 -55.578125 Z M 32.75 -62.1875 C 35.707031 -65.15625 38.863281 -67.453125 42.21875 -69.078125 C 45.570312 -70.703125 49.5 -71.515625 54 -71.515625 C 58.019531 -71.515625 61.773438 -70.75 65.265625 -69.21875 C 68.765625 -67.6875 71.78125 -65.390625 74.3125 -62.328125 C 76.851562 -59.265625 78.84375 -55.457031 80.28125 -50.90625 C 81.71875 -46.363281 82.4375 -41.078125 82.4375 -35.046875 C 82.4375 -29.296875 81.644531 -24.125 80.0625 -19.53125 C 78.476562 -14.9375 76.296875 -11.035156 73.515625 -7.828125 C 70.742188 -4.617188 67.515625 -2.148438 63.828125 -0.421875 C 60.148438 1.296875 56.15625 2.15625 51.84375 2.15625 C 48.007812 2.15625 44.609375 1.554688 41.640625 0.359375 C 38.671875 -0.835938 35.945312 -2.632812 33.46875 -5.03125 L 33.46875 0 C 33.46875 3.25 33.46875 6.976562 33.46875 11.1875 C 33.46875 15.40625 33.515625 19.382812 33.609375 23.125 L 44.234375 25.28125 L 44.234375 31.59375 L 5.453125 31.59375 L 5.453125 25.28125 L 14.21875 23.546875 C 14.3125 19.816406 14.359375 15.769531 14.359375 11.40625 C 14.359375 7.050781 14.359375 3.25 14.359375 0 L 14.359375 -38.34375 C 14.359375 -40.351562 14.359375 -42.097656 14.359375 -43.578125 C 14.359375 -45.066406 14.332031 -46.457031 14.28125 -47.75 C 14.238281 -49.039062 14.191406 -50.285156 14.140625 -51.484375 C 14.097656 -52.679688 14.03125 -54 13.9375 -55.4375 L 4.3125 -56.71875 L 4.3125 -62.1875 L 30.296875 -71.515625 L 32.03125 -70.078125 Z M 32.75 -62.1875 "/></g></g><g style="fill:#ffffff;fill-opacity:1;"><g transform="translate(257.150569, 134.640948)"><path style="stroke:none" d="M 43.21875 -40.921875 C 46.664062 -40.921875 49.035156 -41.640625 50.328125 -43.078125 C 51.628906 -44.515625 52.28125 -46.765625 52.28125 -49.828125 C 52.28125 -54.421875 51.320312 -57.988281 49.40625 -60.53125 C 47.488281 -63.070312 45 -64.34375 41.9375 -64.34375 C 40.3125 -64.34375 38.632812 -63.957031 36.90625 -63.1875 C 35.1875 -62.425781 33.582031 -61.132812 32.09375 -59.3125 C 30.613281 -57.488281 29.320312 -55.066406 28.21875 -52.046875 C 27.113281 -49.035156 26.375 -45.328125 26 -40.921875 Z M 25.84375 -33.75 C 26.132812 -25.226562 28.21875 -18.976562 32.09375 -15 C 35.96875 -11.03125 40.828125 -9.046875 46.671875 -9.046875 C 50.878906 -9.046875 54.347656 -9.976562 57.078125 -11.84375 C 59.804688 -13.707031 62.273438 -16.363281 64.484375 -19.8125 L 69.359375 -17.09375 C 67.441406 -10.769531 63.847656 -5.976562 58.578125 -2.71875 C 53.316406 0.53125 47.050781 2.15625 39.78125 2.15625 C 34.613281 2.15625 29.875 1.34375 25.5625 -0.28125 C 21.25 -1.914062 17.582031 -4.285156 14.5625 -7.390625 C 11.550781 -10.503906 9.207031 -14.332031 7.53125 -18.875 C 5.863281 -23.425781 5.03125 -28.625 5.03125 -34.46875 C 5.03125 -39.925781 5.9375 -44.90625 7.75 -49.40625 C 9.570312 -53.90625 12.085938 -57.804688 15.296875 -61.109375 C 18.503906 -64.410156 22.304688 -66.96875 26.703125 -68.78125 C 31.109375 -70.601562 35.847656 -71.515625 40.921875 -71.515625 C 45.523438 -71.515625 49.664062 -70.769531 53.34375 -69.28125 C 57.03125 -67.800781 60.164062 -65.71875 62.75 -63.03125 C 65.34375 -60.351562 67.332031 -57.148438 68.71875 -53.421875 C 70.101562 -49.691406 70.796875 -45.625 70.796875 -41.21875 C 70.796875 -38.53125 70.507812 -36.039062 69.9375 -33.75 Z M 25.84375 -33.75 "/></g></g><g style="fill:#ffffff;fill-opacity:1;"><g transform="translate(328.528197, 134.640948)"><path style="stroke:none" d="M 45.53125 -37.046875 C 43.707031 -36.566406 42.003906 -36.0625 40.421875 -35.53125 C 38.847656 -35.007812 37.484375 -34.507812 36.328125 -34.03125 C 32.117188 -32.40625 29.195312 -30.347656 27.5625 -27.859375 C 25.9375 -25.367188 25.125 -22.59375 25.125 -19.53125 C 25.125 -17.613281 25.390625 -16.082031 25.921875 -14.9375 C 26.453125 -13.789062 27.097656 -12.832031 27.859375 -12.0625 C 29.867188 -10.050781 32.550781 -9.046875 35.90625 -9.046875 C 37.4375 -9.046875 38.921875 -9.304688 40.359375 -9.828125 C 41.796875 -10.359375 43.519531 -11.34375 45.53125 -12.78125 Z M 77.40625 -9.046875 C 75.488281 -5.117188 73.304688 -2.390625 70.859375 -0.859375 C 68.421875 0.671875 65.382812 1.4375 61.75 1.4375 C 57.820312 1.4375 54.566406 0.671875 51.984375 -0.859375 C 49.398438 -2.390625 47.582031 -4.398438 46.53125 -6.890625 C 43.269531 -3.921875 40.128906 -1.671875 37.109375 -0.140625 C 34.097656 1.390625 30.34375 2.15625 25.84375 2.15625 C 20.101562 2.15625 15.4375 0.695312 11.84375 -2.21875 C 8.257812 -5.144531 6.46875 -9.429688 6.46875 -15.078125 C 6.46875 -17.273438 6.820312 -19.453125 7.53125 -21.609375 C 8.25 -23.765625 9.585938 -25.867188 11.546875 -27.921875 C 13.515625 -29.984375 16.222656 -31.972656 19.671875 -33.890625 C 23.117188 -35.804688 27.570312 -37.675781 33.03125 -39.5 C 34.65625 -40.070312 36.566406 -40.664062 38.765625 -41.28125 C 40.972656 -41.90625 43.226562 -42.550781 45.53125 -43.21875 L 45.53125 -47.53125 C 45.53125 -53.5625 44.617188 -57.867188 42.796875 -60.453125 C 40.972656 -63.046875 37.765625 -64.34375 33.171875 -64.34375 C 32.410156 -64.34375 31.671875 -64.316406 30.953125 -64.265625 C 30.234375 -64.210938 29.488281 -64.140625 28.71875 -64.046875 L 27.578125 -55.71875 C 27.097656 -51.988281 25.945312 -49.210938 24.125 -47.390625 C 22.300781 -45.566406 20.144531 -44.65625 17.65625 -44.65625 C 15.457031 -44.65625 13.566406 -45.328125 11.984375 -46.671875 C 10.410156 -48.015625 9.382812 -49.785156 8.90625 -51.984375 C 9.570312 -57.628906 12.585938 -62.296875 17.953125 -65.984375 C 23.316406 -69.671875 30.59375 -71.515625 39.78125 -71.515625 C 44.28125 -71.515625 48.132812 -71.007812 51.34375 -70 C 54.550781 -69 57.160156 -67.375 59.171875 -65.125 C 61.179688 -62.875 62.664062 -59.90625 63.625 -56.21875 C 64.582031 -52.53125 65.0625 -48.007812 65.0625 -42.65625 L 65.0625 -13.0625 C 65.0625 -11.53125 65.347656 -10.285156 65.921875 -9.328125 C 66.492188 -8.378906 67.398438 -7.90625 68.640625 -7.90625 C 69.597656 -7.90625 70.363281 -8.191406 70.9375 -8.765625 C 71.507812 -9.335938 72.179688 -10.054688 72.953125 -10.921875 L 73.671875 -11.78125 Z M 77.40625 -9.046875 "/></g></g><g style="fill:#ffffff;fill-opacity:1;"><g transform="translate(400.911129, 134.640948)"><path style="stroke:none" d="M 85.453125 -6.3125 L 85.453125 0 L 58.453125 0 L 39.5 -33.609375 L 32.59375 -27 C 32.59375 -24.125 32.617188 -21.007812 32.671875 -17.65625 C 32.722656 -14.3125 32.75 -11.109375 32.75 -8.046875 L 41.5 -6.3125 L 41.5 0 L 4.734375 0 L 4.734375 -6.3125 L 13.5 -8.046875 C 13.59375 -11.679688 13.640625 -15.507812 13.640625 -19.53125 C 13.640625 -23.550781 13.640625 -27.09375 13.640625 -30.15625 L 13.640625 -89.75 L 2.875 -91.1875 L 2.875 -96.9375 L 31.15625 -103.40625 L 33.171875 -102.25 L 32.59375 -81.859375 L 32.59375 -35.765625 L 58.453125 -61.03125 L 47.828125 -62.609375 L 47.828125 -68.9375 L 80.859375 -68.9375 L 80.859375 -62.609375 L 67.78125 -60.890625 L 52.984375 -46.671875 L 74.96875 -8.765625 Z M 85.453125 -6.3125 "/></g></g><g style="fill:#ffffff;fill-opacity:1;"><g transform="translate(481.341559, 134.640948)"><path style="stroke:none" d=""/></g></g><g style="fill:#ff6b00;fill-opacity:1;"><g transform="translate(481.341559, 134.640948)"><path style="stroke:none" d="M 80.421875 -27.859375 L 78.984375 0 L 4.59375 0 L 4.59375 -7.1875 L 16.234375 -8.46875 C 16.421875 -14.40625 16.515625 -20.363281 16.515625 -26.34375 C 16.515625 -32.332031 16.515625 -38.390625 16.515625 -44.515625 L 16.515625 -49.546875 C 16.515625 -55.578125 16.515625 -61.582031 16.515625 -67.5625 C 16.515625 -73.550781 16.421875 -79.5625 16.234375 -85.59375 L 4.59375 -86.890625 L 4.59375 -94.0625 L 50.125 -94.0625 L 50.125 -86.890625 L 37.765625 -85.59375 C 37.578125 -79.5625 37.484375 -73.578125 37.484375 -67.640625 C 37.484375 -61.703125 37.484375 -55.671875 37.484375 -49.546875 L 37.484375 -44.515625 C 37.484375 -38.390625 37.484375 -32.285156 37.484375 -26.203125 C 37.484375 -20.128906 37.578125 -14.03125 37.765625 -7.90625 L 65.0625 -7.90625 L 69.078125 -27.859375 Z M 80.421875 -27.859375 "/></g></g><g style="fill:#ff6b00;fill-opacity:1;"><g transform="translate(560.330886, 134.640948)"><path style="stroke:none" d="M 45.53125 -37.046875 C 43.707031 -36.566406 42.003906 -36.0625 40.421875 -35.53125 C 38.847656 -35.007812 37.484375 -34.507812 36.328125 -34.03125 C 32.117188 -32.40625 29.195312 -30.347656 27.5625 -27.859375 C 25.9375 -25.367188 25.125 -22.59375 25.125 -19.53125 C 25.125 -17.613281 25.390625 -16.082031 25.921875 -14.9375 C 26.453125 -13.789062 27.097656 -12.832031 27.859375 -12.0625 C 29.867188 -10.050781 32.550781 -9.046875 35.90625 -9.046875 C 37.4375 -9.046875 38.921875 -9.304688 40.359375 -9.828125 C 41.796875 -10.359375 43.519531 -11.34375 45.53125 -12.78125 Z M 77.40625 -9.046875 C 75.488281 -5.117188 73.304688 -2.390625 70.859375 -0.859375 C 68.421875 0.671875 65.382812 1.4375 61.75 1.4375 C 57.820312 1.4375 54.566406 0.671875 51.984375 -0.859375 C 49.398438 -2.390625 47.582031 -4.398438 46.53125 -6.890625 C 43.269531 -3.921875 40.128906 -1.671875 37.109375 -0.140625 C 34.097656 1.390625 30.34375 2.15625 25.84375 2.15625 C 20.101562 2.15625 15.4375 0.695312 11.84375 -2.21875 C 8.257812 -5.144531 6.46875 -9.429688 6.46875 -15.078125 C 6.46875 -17.273438 6.820312 -19.453125 7.53125 -21.609375 C 8.25 -23.765625 9.585938 -25.867188 11.546875 -27.921875 C 13.515625 -29.984375 16.222656 -31.972656 19.671875 -33.890625 C 23.117188 -35.804688 27.570312 -37.675781 33.03125 -39.5 C 34.65625 -40.070312 36.566406 -40.664062 38.765625 -41.28125 C 40.972656 -41.90625 43.226562 -42.550781 45.53125 -43.21875 L 45.53125 -47.53125 C 45.53125 -53.5625 44.617188 -57.867188 42.796875 -60.453125 C 40.972656 -63.046875 37.765625 -64.34375 33.171875 -64.34375 C 32.410156 -64.34375 31.671875 -64.316406 30.953125 -64.265625 C 30.234375 -64.210938 29.488281 -64.140625 28.71875 -64.046875 L 27.578125 -55.71875 C 27.097656 -51.988281 25.945312 -49.210938 24.125 -47.390625 C 22.300781 -45.566406 20.144531 -44.65625 17.65625 -44.65625 C 15.457031 -44.65625 13.566406 -45.328125 11.984375 -46.671875 C 10.410156 -48.015625 9.382812 -49.785156 8.90625 -51.984375 C 9.570312 -57.628906 12.585938 -62.296875 17.953125 -65.984375 C 23.316406 -69.671875 30.59375 -71.515625 39.78125 -71.515625 C 44.28125 -71.515625 48.132812 -71.007812 51.34375 -70 C 54.550781 -69 57.160156 -67.375 59.171875 -65.125 C 61.179688 -62.875 62.664062 -59.90625 63.625 -56.21875 C 64.582031 -52.53125 65.0625 -48.007812 65.0625 -42.65625 L 65.0625 -13.0625 C 65.0625 -11.53125 65.347656 -10.285156 65.921875 -9.328125 C 66.492188 -8.378906 67.398438 -7.90625 68.640625 -7.90625 C 69.597656 -7.90625 70.363281 -8.191406 70.9375 -8.765625 C 71.507812 -9.335938 72.179688 -10.054688 72.953125 -10.921875 L 73.671875 -11.78125 Z M 77.40625 -9.046875 "/></g></g><g style="fill:#ff6b00;fill-opacity:1;"><g transform="translate(632.713829, 134.640948)"><path style="stroke:none" d="M 33.171875 -13.359375 C 35.085938 -12.015625 37.050781 -10.9375 39.0625 -10.125 C 41.070312 -9.3125 43.082031 -8.90625 45.09375 -8.90625 C 49.5 -8.90625 53.234375 -10.984375 56.296875 -15.140625 C 59.359375 -19.304688 60.890625 -25.796875 60.890625 -34.609375 C 60.890625 -43.421875 59.570312 -49.90625 56.9375 -54.0625 C 54.300781 -58.226562 50.6875 -60.3125 46.09375 -60.3125 C 43.894531 -60.3125 41.71875 -59.878906 39.5625 -59.015625 C 37.40625 -58.160156 35.273438 -57.015625 33.171875 -55.578125 Z M 32.75 -62.75 C 35.613281 -65.53125 38.671875 -67.6875 41.921875 -69.21875 C 45.179688 -70.75 48.96875 -71.515625 53.28125 -71.515625 C 57.300781 -71.515625 61.054688 -70.75 64.546875 -69.21875 C 68.046875 -67.6875 71.0625 -65.390625 73.59375 -62.328125 C 76.132812 -59.265625 78.125 -55.457031 79.5625 -50.90625 C 81 -46.363281 81.71875 -41.078125 81.71875 -35.046875 C 81.71875 -29.296875 80.925781 -24.125 79.34375 -19.53125 C 77.757812 -14.9375 75.578125 -11.035156 72.796875 -7.828125 C 70.023438 -4.617188 66.796875 -2.148438 63.109375 -0.421875 C 59.429688 1.296875 55.4375 2.15625 51.125 2.15625 C 46.914062 2.15625 43.253906 1.457031 40.140625 0.0625 C 37.023438 -1.320312 34.175781 -3.398438 31.59375 -6.171875 L 31.15625 -6.171875 L 30.296875 2.15625 L 4.734375 0 L 4.734375 -6.3125 L 13.5 -8.046875 C 13.59375 -11.679688 13.640625 -15.507812 13.640625 -19.53125 C 13.640625 -23.550781 13.640625 -27.09375 13.640625 -30.15625 L 13.640625 -89.90625 L 2.875 -91.1875 L 2.875 -96.9375 L 31.3125 -103.40625 L 33.3125 -102.25 L 32.75 -81.859375 Z M 32.75 -62.75 "/></g></g><g style="fill:#ff6b00;fill-opacity:1;"><g transform="translate(714.438701, 134.640948)"><path style="stroke:none" d=""/></g></g></g></svg>